<?xml version="1.0" encoding="UTF-8"?>
<!DOCTYPE svg PUBLIC "-//W3C//DTD SVG 1.1//EN" "http://www.w3.org/Graphics/SVG/1.1/DTD/svg11.dtd">
<svg version="1.2" width="680.86mm" height="220.49mm" viewBox="0 0 68086 22049" preserveAspectRatio="xMidYMid" fill-rule="evenodd" stroke-width="28.222" stroke-linejoin="round" xmlns="http://www.w3.org/2000/svg" xmlns:ooo="http://xml.openoffice.org/svg/export" xmlns:xlink="http://www.w3.org/1999/xlink" xmlns:presentation="http://sun.com/xmlns/staroffice/presentation" xmlns:smil="http://www.w3.org/2001/SMIL20/" xmlns:anim="urn:oasis:names:tc:opendocument:xmlns:animation:1.0" xml:space="preserve">
 <defs class="ClipPathGroup">
  <clipPath id="presentation_clip_path" clipPathUnits="userSpaceOnUse">
   <rect x="0" y="0" width="68086" height="22049"/>
  </clipPath>
  <clipPath id="presentation_clip_path_shrink" clipPathUnits="userSpaceOnUse">
   <rect x="68" y="22" width="67950" height="22005"/>
  </clipPath>
 </defs>
 <defs class="TextShapeIndex">
  <g ooo:slide="id1" ooo:id-list="id3 id4 id5 id6 id7 id8 id9 id10 id11 id12 id13 id14 id15 id16 id17 id18 id19 id20 id21 id22 id23 id24 id25 id26 id27"/>
 </defs>
 <defs class="EmbeddedBulletChars">
  <g id="bullet-char-template-57356" transform="scale(0.00048828125,-0.00048828125)">
   <path d="M 580,1141 L 1163,571 580,0 -4,571 580,1141 Z"/>
  </g>
  <g id="bullet-char-template-57354" transform="scale(0.00048828125,-0.00048828125)">
   <path d="M 8,1128 L 1137,1128 1137,0 8,0 8,1128 Z"/>
  </g>
  <g id="bullet-char-template-10146" transform="scale(0.00048828125,-0.00048828125)">
   <path d="M 174,0 L 602,739 174,1481 1456,739 174,0 Z M 1358,739 L 309,1346 659,739 1358,739 Z"/>
  </g>
  <g id="bullet-char-template-10132" transform="scale(0.00048828125,-0.00048828125)">
   <path d="M 2015,739 L 1276,0 717,0 1260,543 174,543 174,936 1260,936 717,1481 1274,1481 2015,739 Z"/>
  </g>
  <g id="bullet-char-template-10007" transform="scale(0.00048828125,-0.00048828125)">
   <path d="M 0,-2 C -7,14 -16,27 -25,37 L 356,567 C 262,823 215,952 215,954 215,979 228,992 255,992 264,992 276,990 289,987 310,991 331,999 354,1012 L 381,999 492,748 772,1049 836,1024 860,1049 C 881,1039 901,1025 922,1006 886,937 835,863 770,784 769,783 710,716 594,584 L 774,223 C 774,196 753,168 711,139 L 727,119 C 717,90 699,76 672,76 641,76 570,178 457,381 L 164,-76 C 142,-110 111,-127 72,-127 30,-127 9,-110 8,-76 1,-67 -2,-52 -2,-32 -2,-23 -1,-13 0,-2 Z"/>
  </g>
  <g id="bullet-char-template-10004" transform="scale(0.00048828125,-0.00048828125)">
   <path d="M 285,-33 C 182,-33 111,30 74,156 52,228 41,333 41,471 41,549 55,616 82,672 116,743 169,778 240,778 293,778 328,747 346,684 L 369,508 C 377,444 397,411 428,410 L 1163,1116 C 1174,1127 1196,1133 1229,1133 1271,1133 1292,1118 1292,1087 L 1292,965 C 1292,929 1282,901 1262,881 L 442,47 C 390,-6 338,-33 285,-33 Z"/>
  </g>
  <g id="bullet-char-template-9679" transform="scale(0.00048828125,-0.00048828125)">
   <path d="M 813,0 C 632,0 489,54 383,161 276,268 223,411 223,592 223,773 276,916 383,1023 489,1130 632,1184 813,1184 992,1184 1136,1130 1245,1023 1353,916 1407,772 1407,592 1407,412 1353,268 1245,161 1136,54 992,0 813,0 Z"/>
  </g>
  <g id="bullet-char-template-8226" transform="scale(0.00048828125,-0.00048828125)">
   <path d="M 346,457 C 273,457 209,483 155,535 101,586 74,649 74,723 74,796 101,859 155,911 209,963 273,989 346,989 419,989 480,963 531,910 582,859 608,796 608,723 608,648 583,586 532,535 482,483 420,457 346,457 Z"/>
  </g>
  <g id="bullet-char-template-8211" transform="scale(0.00048828125,-0.00048828125)">
   <path d="M -4,459 L 1135,459 1135,606 -4,606 -4,459 Z"/>
  </g>
  <g id="bullet-char-template-61548" transform="scale(0.00048828125,-0.00048828125)">
   <path d="M 173,740 C 173,903 231,1043 346,1159 462,1274 601,1332 765,1332 928,1332 1067,1274 1183,1159 1299,1043 1357,903 1357,740 1357,577 1299,437 1183,322 1067,206 928,148 765,148 601,148 462,206 346,322 231,437 173,577 173,740 Z"/>
  </g>
 </defs>
 <g>
  <g id="id2" class="Master_Slide">
   <g id="bg-id2" class="Background"/>
   <g id="bo-id2" class="BackgroundObjects"/>
  </g>
 </g>
 <g class="SlideGroup">
  <g>
   <g id="container-id1">
    <g id="id1" class="Slide" clip-path="url(#presentation_clip_path)">
     <g class="Page">
      <g id="bg-id1" class="Background">
       <defs>
        <linearGradient id="Gradient_1" gradientUnits="userSpaceOnUse" x1="34042" y1="0" x2="34042" y2="22048">
         <stop offset="0" stop-color="rgb(173,197,231)"/>
         <stop offset="1" stop-color="rgb(255,255,255)"/>
        </linearGradient>
       </defs>
       <path fill="url(#Gradient_1)" stroke="none" d="M 34043,22048 L 0,22048 0,0 68085,0 68085,22048 34043,22048 Z"/>
      </g>
      <g class="com.sun.star.drawing.ClosedBezierShape">
       <g id="id3">
        <rect class="BoundingBox" stroke="none" fill="none" x="-9" y="-9" width="68106" height="22069"/>
        <path fill="rgb(96,96,96)" stroke="none" d="M 0,11025 L 0,22050 34044,22050 68087,22050 68087,11025 68087,0 34044,0 0,0 0,11025 Z M 67646,8714 C 67646,13287 67633,17022 67615,17013 67593,17005 67434,16925 67254,16833 66438,16431 65529,16453 64744,16899 L 64511,17031 64206,16744 C 62429,15064 59938,14760 57839,15964 56388,16793 55343,18442 55224,20074 L 55197,20462 54950,20462 C 54267,20466 53614,20740 53098,21238 52812,21512 52776,21560 52865,21565 52931,21565 53072,21472 53248,21309 53724,20872 54408,20616 55012,20647 55158,20652 55299,20643 55325,20630 55352,20612 55387,20396 55400,20145 55435,19509 55599,18919 55916,18279 56229,17640 56498,17278 57014,16793 59029,14906 62191,14963 64145,16916 64326,17097 64475,17243 64489,17243 64498,17243 64617,17172 64758,17088 65190,16828 65529,16736 66059,16736 66605,16736 66989,16837 67395,17088 L 67646,17252 67646,19430 67646,21609 34035,21600 419,21587 406,10990 397,397 34022,397 67646,397 67646,8714 Z"/>
        <path fill="none" stroke="rgb(64,64,64)" stroke-width="18" stroke-linejoin="miter" d="M 0,11025 L 0,22050 34044,22050 68087,22050 68087,11025 68087,0 34044,0 0,0 0,11025 Z"/>
        <path fill="none" stroke="rgb(64,64,64)" stroke-width="18" stroke-linejoin="miter" d="M 67646,8714 C 67646,13287 67633,17022 67615,17013 67593,17005 67434,16925 67254,16833 66438,16431 65529,16453 64744,16899 L 64511,17031 64206,16744 C 62429,15064 59938,14760 57839,15964 56388,16793 55343,18442 55224,20074 L 55197,20462 54950,20462 C 54267,20466 53614,20740 53098,21238 52812,21512 52776,21560 52865,21565 52931,21565 53072,21472 53248,21309 53724,20872 54408,20616 55012,20647 55158,20652 55299,20643 55325,20630 55352,20612 55387,20396 55400,20145 55435,19509 55599,18919 55916,18279 56229,17640 56498,17278 57014,16793 59029,14906 62191,14963 64145,16916 64326,17097 64475,17243 64489,17243 64498,17243 64617,17172 64758,17088 65190,16828 65529,16736 66059,16736 66605,16736 66989,16837 67395,17088 L 67646,17252 67646,19430 67646,21609 34035,21600 419,21587 406,10990 397,397 34022,397 67646,397 67646,8714 Z"/>
       </g>
      </g>
      <g class="Group">
       <g class="com.sun.star.drawing.ClosedBezierShape">
        <g id="id4">
         <rect class="BoundingBox" stroke="none" fill="none" x="17467" y="9484" width="2179" height="2927"/>
         <path fill="rgb(0,0,192)" stroke="none" d="M 18350,9563 C 17834,9740 17517,10208 17473,10843 17406,11778 17931,12404 18783,12409 19074,12413 19145,12395 19352,12276 19696,12082 19714,12038 19524,11826 L 19365,11650 19202,11769 C 18986,11919 18633,11932 18443,11791 18218,11624 18108,11359 18103,10984 18099,10410 18342,10058 18770,10022 18937,10009 19017,10027 19153,10110 L 19330,10221 19475,10044 C 19555,9947 19621,9855 19621,9833 19621,9784 19312,9590 19140,9533 18924,9458 18620,9471 18350,9563 Z"/>
        </g>
       </g>
       <g class="com.sun.star.drawing.ClosedBezierShape">
        <g id="id5">
         <rect class="BoundingBox" stroke="none" fill="none" x="23391" y="9477" width="2516" height="2949"/>
         <path fill="rgb(0,0,192)" stroke="none" d="M 24269,9528 C 23964,9616 23709,9841 23545,10159 23400,10445 23391,10485 23391,10909 23391,11447 23475,11725 23726,12007 24044,12369 24538,12510 25010,12373 25359,12272 25575,12100 25751,11769 25901,11491 25906,11478 25906,10957 25906,10494 25892,10397 25800,10194 25553,9647 24873,9351 24269,9528 Z M 25072,10198 C 25257,10397 25323,10657 25301,11045 25266,11561 25067,11844 24706,11888 24463,11919 24256,11791 24123,11531 24035,11359 24013,11257 24013,10962 24013,10318 24260,9982 24710,10022 24891,10040 24953,10066 25072,10198 Z"/>
        </g>
       </g>
       <g class="com.sun.star.drawing.ClosedBezierShape">
        <g id="id6">
         <rect class="BoundingBox" stroke="none" fill="none" x="45380" y="9484" width="2333" height="2939"/>
         <path fill="rgb(0,0,192)" stroke="none" d="M 46410,9518 C 46026,9620 45660,9933 45497,10308 45369,10594 45342,11115 45439,11441 45589,11958 45876,12240 46388,12372 46723,12456 47054,12434 47354,12297 47716,12138 47711,12147 47711,11433 L 47711,10802 47204,10802 46697,10802 46697,11044 46697,11287 46917,11287 47138,11287 47138,11552 C 47138,11799 47129,11821 47023,11860 46842,11931 46639,11913 46432,11803 45876,11525 45863,10418 46414,10109 46648,9977 46922,9977 47155,10114 L 47336,10220 47491,10021 C 47636,9827 47641,9818 47557,9756 47252,9527 46758,9425 46410,9518 Z"/>
        </g>
       </g>
       <g class="com.sun.star.drawing.PolyPolygonShape">
        <g id="id7">
         <rect class="BoundingBox" stroke="none" fill="none" x="20679" y="9523" width="1766" height="2868"/>
         <path fill="rgb(0,0,192)" stroke="none" d="M 20679,10957 L 20679,12390 21561,12390 22444,12390 22444,12126 22444,11861 21870,11861 21297,11861 21297,10692 21297,9523 20988,9523 20679,9523 20679,10957 Z"/>
        </g>
       </g>
       <g class="com.sun.star.drawing.ClosedBezierShape">
        <g id="id8">
         <rect class="BoundingBox" stroke="none" fill="none" x="27029" y="9523" width="2252" height="2887"/>
         <path fill="rgb(0,0,192)" stroke="none" d="M 27029,10485 C 27029,11195 27047,11504 27091,11658 27254,12192 27563,12412 28154,12408 28428,12408 28547,12386 28683,12315 29173,12055 29279,11715 29279,10348 L 29279,9523 28970,9523 28661,9523 28661,10493 C 28661,11574 28635,11715 28401,11834 28233,11923 28075,11923 27907,11834 27673,11715 27647,11574 27647,10493 L 27647,9523 27338,9523 27029,9523 27029,10485 Z"/>
        </g>
       </g>
       <g class="com.sun.star.drawing.ClosedBezierShape">
        <g id="id9">
         <rect class="BoundingBox" stroke="none" fill="none" x="30512" y="9523" width="2207" height="2882"/>
         <path fill="rgb(0,0,192)" stroke="none" d="M 30512,10961 L 30512,12404 31121,12377 C 31844,12351 32083,12280 32347,12015 32603,11760 32718,11433 32718,10961 32718,10498 32625,10185 32422,9960 32127,9629 31769,9523 30997,9523 L 30512,9523 30512,10961 Z M 31522,10057 C 31941,10145 32131,10485 32091,11063 32052,11583 31844,11821 31394,11852 L 31130,11870 31130,10939 C 31130,9885 31094,9964 31522,10057 Z"/>
        </g>
       </g>
       <g class="com.sun.star.drawing.ClosedBezierShape">
        <g id="id10">
         <rect class="BoundingBox" stroke="none" fill="none" x="33864" y="9514" width="2153" height="2891"/>
         <path fill="rgb(0,0,192)" stroke="none" d="M 33864,10956 L 33864,12403 34588,12381 C 35263,12364 35324,12355 35554,12240 35832,12108 35960,11936 36008,11653 36057,11336 35867,10996 35598,10912 35496,10886 35501,10881 35646,10745 36021,10387 35911,9801 35430,9607 35355,9576 34993,9545 34583,9532 L 33864,9514 33864,10956 Z M 35161,10101 C 35311,10220 35315,10414 35165,10559 35073,10657 35020,10670 34768,10670 L 34482,10670 34482,10339 34482,10008 34764,10008 C 34980,10008 35068,10030 35161,10101 Z M 35271,11234 C 35435,11353 35448,11587 35307,11755 35205,11870 35165,11883 34839,11896 L 34482,11914 34482,11508 34482,11098 34821,11124 C 35055,11142 35196,11177 35271,11234 Z"/>
        </g>
       </g>
       <g class="com.sun.star.drawing.ClosedBezierShape">
        <g id="id11">
         <rect class="BoundingBox" stroke="none" fill="none" x="37083" y="9523" width="2239" height="2868"/>
         <path fill="rgb(0,0,192)" stroke="none" d="M 37083,10957 L 37083,12390 37392,12390 37701,12390 37701,11861 37701,11332 37895,11332 38084,11332 38367,11861 38649,12390 38993,12390 C 39183,12390 39329,12377 39320,12355 38843,11526 38715,11296 38715,11274 38715,11257 38804,11164 38905,11067 39209,10789 39284,10374 39104,10008 38909,9624 38605,9523 37679,9523 L 37083,9523 37083,10957 Z M 38358,10057 C 38433,10083 38517,10141 38539,10185 38618,10335 38587,10568 38477,10701 38384,10811 38340,10824 38036,10838 L 37701,10855 37701,10432 37701,10008 37961,10008 C 38102,10008 38279,10030 38358,10057 Z"/>
        </g>
       </g>
       <g class="com.sun.star.drawing.PolyPolygonShape">
        <g id="id12">
         <rect class="BoundingBox" stroke="none" fill="none" x="40302" y="9523" width="619" height="2868"/>
         <path fill="rgb(0,0,192)" stroke="none" d="M 40302,10957 L 40302,12390 40611,12390 40920,12390 40920,10957 40920,9523 40611,9523 40302,9523 40302,10957 Z"/>
        </g>
       </g>
       <g class="com.sun.star.drawing.ClosedBezierShape">
        <g id="id13">
         <rect class="BoundingBox" stroke="none" fill="none" x="42154" y="9523" width="2207" height="2882"/>
         <path fill="rgb(0,0,192)" stroke="none" d="M 42154,10961 L 42154,12404 42763,12377 C 43486,12351 43725,12280 43989,12015 44245,11760 44360,11433 44360,10961 44360,10498 44267,10185 44064,9960 43769,9629 43411,9523 42639,9523 L 42154,9523 42154,10961 Z M 43164,10057 C 43583,10145 43773,10485 43733,11063 43694,11583 43486,11821 43036,11852 L 42772,11870 42772,10939 C 42772,9885 42736,9964 43164,10057 Z"/>
        </g>
       </g>
       <g class="com.sun.star.drawing.PolyPolygonShape">
        <g id="id14">
         <rect class="BoundingBox" stroke="none" fill="none" x="48857" y="9523" width="1810" height="2868"/>
         <path fill="rgb(0,0,192)" stroke="none" d="M 48857,10957 L 48857,12390 49761,12390 50666,12390 50666,12126 50666,11861 50070,11861 49475,11861 49475,11508 49475,11155 49960,11155 50445,11155 50445,10913 50445,10670 49960,10670 49475,10670 49475,10361 49475,10052 50048,10052 50622,10052 50622,9788 50622,9523 49739,9523 48857,9523 48857,10957 Z"/>
        </g>
       </g>
      </g>
      <g class="Group">
       <g class="com.sun.star.drawing.ClosedBezierShape">
        <g id="id15">
         <rect class="BoundingBox" stroke="none" fill="none" x="2560" y="3544" width="17786" height="10610"/>
         <path fill="rgb(114,159,207)" stroke="none" d="M 10281,3570 C 7776,3825 5699,5929 5522,8386 L 5496,8774 5249,8774 C 4874,8774 4424,8888 4054,9065 3586,9294 3070,9814 2845,10282 2471,11063 2466,11861 2832,12633 3225,13444 4071,14061 4918,14141 5165,14163 5200,14158 5200,14092 5200,14008 5192,14004 4781,13942 3847,13797 3000,12977 2797,12015 2718,11627 2713,11305 2793,10930 3039,9779 4160,8902 5311,8959 5456,8963 5597,8954 5624,8941 5650,8924 5685,8707 5699,8456 5734,7821 5897,7230 6215,6591 6528,5951 6797,5590 7313,5104 9328,3217 12490,3274 14444,5228 14624,5409 14774,5554 14788,5554 14796,5554 14916,5484 15057,5400 15489,5140 15828,5047 16358,5047 16944,5047 17319,5157 17786,5466 18148,5709 18413,6013 18611,6405 18827,6829 18885,7137 18862,7715 L 18840,8222 19065,8403 C 19524,8765 19921,9391 20088,10008 20199,10410 20199,11252 20088,11640 19841,12535 19211,13294 18399,13678 18104,13819 18042,13872 18108,13938 18210,14039 18907,13634 19326,13232 20005,12588 20344,11790 20344,10824 20344,9845 19996,9047 19286,8377 L 19026,8134 19039,7649 C 19061,6829 18827,6216 18276,5660 17412,4796 16097,4610 15043,5210 L 14810,5343 14505,5056 C 13341,3953 11807,3415 10281,3570 Z"/>
        </g>
       </g>
       <g class="com.sun.star.drawing.ClosedBezierShape">
        <g id="id16">
         <rect class="BoundingBox" stroke="none" fill="none" x="10624" y="10062" width="6762" height="6167"/>
         <path fill="rgb(114,159,207)" stroke="none" d="M 11131,10131 C 10845,10268 10624,10595 10624,10890 10624,11318 11039,11724 11475,11728 11740,11728 12300,11860 12551,11979 13059,12218 13504,12650 13755,13157 13830,13303 13879,13426 13870,13439 13857,13448 13689,13333 13491,13179 13164,12923 13116,12901 12878,12884 12362,12848 11991,13192 11991,13722 11991,13885 12022,14004 12093,14118 12203,14299 14315,16068 14536,16165 14774,16266 15078,16244 15290,16108 15396,16037 15762,15636 16146,15164 16516,14714 16913,14238 17023,14105 17301,13783 17385,13602 17385,13338 17385,12879 17023,12522 16560,12522 16265,12522 16141,12588 15846,12901 L 15572,13192 15497,12954 C 15162,11922 14333,10978 13336,10493 12785,10224 12318,10101 11749,10070 11374,10052 11281,10061 11131,10131 Z M 12401,10339 C 13328,10577 14148,11102 14682,11807 14973,12191 15268,12782 15370,13179 15427,13400 15471,13492 15520,13492 15559,13492 15705,13351 15841,13183 16137,12822 16313,12698 16547,12698 16984,12698 17288,13113 17178,13554 17151,13664 16772,14149 15868,15234 15211,16024 15220,16019 14911,16041 14699,16055 14633,16041 14505,15953 14135,15702 12326,14171 12251,14048 11996,13625 12326,13051 12829,13051 13019,13051 13182,13148 13645,13541 13998,13836 14152,13911 14152,13783 14152,13638 13967,13139 13822,12897 13623,12566 13208,12143 12900,11953 12573,11759 12088,11600 11709,11569 11294,11534 11149,11485 11003,11336 10695,11014 10805,10480 11219,10286 11383,10211 12000,10237 12401,10339 Z"/>
        </g>
       </g>
       <g class="com.sun.star.drawing.ClosedBezierShape">
        <g id="id17">
         <rect class="BoundingBox" stroke="none" fill="none" x="5563" y="12298" width="6718" height="6193"/>
         <path fill="rgb(114,159,207)" stroke="none" d="M 7733,12390 C 7548,12482 7283,12787 6119,14229 5625,14842 5523,15049 5576,15314 5682,15812 6158,16125 6621,16006 6767,15966 6877,15887 7102,15645 L 7393,15336 7495,15645 C 7548,15817 7684,16116 7795,16315 8527,17612 9885,18445 11327,18489 11724,18498 11932,18414 12143,18150 12267,17995 12280,17956 12280,17660 12280,17365 12267,17325 12143,17171 11954,16932 11751,16844 11301,16800 10617,16738 10123,16505 9651,16028 9400,15777 9029,15164 9091,15102 9109,15084 9241,15173 9391,15296 9819,15653 10026,15733 10331,15649 10855,15512 11116,14970 10895,14480 10816,14304 10675,14180 8897,12712 8381,12284 8103,12209 7733,12390 Z M 8315,12522 C 8381,12548 8584,12694 8769,12844 8954,12998 9453,13408 9876,13752 10300,14101 10683,14445 10727,14524 10944,14912 10675,15455 10247,15486 9947,15503 9876,15473 9387,15080 8844,14639 8769,14626 8857,14979 9127,16046 10101,16857 11266,16976 11499,16999 11746,17051 11821,17087 12236,17303 12227,18022 11808,18238 11539,18375 10635,18291 10092,18079 8840,17585 7993,16681 7605,15420 7539,15208 7468,15036 7446,15036 7429,15036 7279,15195 7115,15384 6785,15786 6582,15900 6295,15852 5797,15768 5585,15186 5898,14771 6185,14392 7601,12712 7706,12623 7874,12482 8108,12447 8315,12522 Z"/>
        </g>
       </g>
      </g>
      <g class="Group">
       <g class="com.sun.star.drawing.ClosedBezierShape">
        <g id="id18">
         <rect class="BoundingBox" stroke="none" fill="none" x="30607" y="13597" width="2639" height="2830"/>
         <path fill="rgb(0,0,0)" stroke="none" d="M 30607,13598 L 31305,13598 31761,14856 C 31790,14939 31817,15025 31843,15114 31869,15202 31897,15289 31926,15376 L 31943,15376 C 31972,15289 31999,15202 32023,15114 32048,15025 32075,14939 32103,14856 L 32550,13598 33244,13598 33244,16426 32663,16426 32663,15389 C 32663,15320 32666,15243 32672,15159 32677,15075 32685,14991 32693,14905 32702,14820 32711,14736 32719,14654 32728,14571 32737,14496 32745,14426 L 32728,14426 32498,15098 32095,16178 31743,16178 31340,15098 31115,14426 31097,14426 C 31106,14496 31115,14571 31123,14654 31132,14736 31141,14820 31149,14905 31158,14991 31165,15075 31171,15159 31177,15243 31180,15320 31180,15389 L 31180,16426 30607,16426 30607,13598 Z"/>
        </g>
       </g>
       <g class="com.sun.star.drawing.ClosedBezierShape">
        <g id="id19">
         <rect class="BoundingBox" stroke="none" fill="none" x="33609" y="13597" width="2539" height="2830"/>
         <path fill="rgb(0,0,0)" stroke="none" d="M 35166,15255 L 35101,14994 C 35061,14853 35022,14702 34984,14543 34947,14384 34909,14231 34871,14083 L 34854,14083 C 34819,14234 34784,14388 34748,14545 34712,14703 34673,14853 34633,14994 L 34563,15255 35166,15255 Z M 35296,15753 L 34433,15753 34260,16426 33609,16426 34494,13598 35262,13598 36147,16426 35470,16426 35296,15753 Z"/>
        </g>
       </g>
       <g class="com.sun.star.drawing.ClosedBezierShape">
        <g id="id20">
         <rect class="BoundingBox" stroke="none" fill="none" x="35968" y="13597" width="2197" height="2830"/>
         <path fill="rgb(0,0,0)" stroke="none" d="M 36745,14136 C 36486,14136 36228,14136 35969,14136 35969,13956 35969,13777 35969,13598 36700,13598 37432,13598 38163,13598 38163,13777 38163,13956 38163,14136 37905,14136 37646,14136 37387,14136 37387,14899 37387,15662 37387,16426 37173,16426 36959,16426 36745,16426 36745,15662 36745,14899 36745,14136 Z"/>
        </g>
       </g>
       <g class="com.sun.star.drawing.ClosedBezierShape">
        <g id="id21">
         <rect class="BoundingBox" stroke="none" fill="none" x="38437" y="13597" width="2197" height="2830"/>
         <path fill="rgb(0,0,0)" stroke="none" d="M 39214,14136 C 38955,14136 38696,14136 38438,14136 38438,13956 38438,13777 38438,13598 39169,13598 39901,13598 40632,13598 40632,13777 40632,13956 40632,14136 40374,14136 40115,14136 39856,14136 39856,14899 39856,15662 39856,16426 39642,16426 39428,16426 39214,16426 39214,15662 39214,14899 39214,14136 Z"/>
        </g>
       </g>
       <g class="com.sun.star.drawing.ClosedBezierShape">
        <g id="id22">
         <rect class="BoundingBox" stroke="none" fill="none" x="41132" y="13597" width="1815" height="2830"/>
         <path fill="rgb(0,0,0)" stroke="none" d="M 41132,13598 C 41722,13598 42312,13598 42902,13598 42902,13777 42902,13956 42902,14136 42524,14136 42147,14136 41770,14136 41770,14325 41770,14514 41770,14704 42091,14704 42412,14704 42733,14704 42733,14882 42733,15059 42733,15237 42412,15237 42091,15237 41770,15237 41770,15454 41770,15671 41770,15888 42161,15888 42553,15888 42945,15888 42945,16067 42945,16246 42945,16426 42341,16426 41736,16426 41132,16426 41132,15483 41132,14540 41132,13598 Z"/>
        </g>
       </g>
       <g class="com.sun.star.drawing.ClosedBezierShape">
        <g id="id23">
         <rect class="BoundingBox" stroke="none" fill="none" x="43566" y="13597" width="2248" height="2830"/>
         <path fill="rgb(0,0,0)" stroke="none" d="M 44204,14899 L 44533,14899 C 44701,14899 44829,14864 44917,14793 45005,14722 45049,14617 45049,14478 45049,14339 45005,14243 44917,14188 44829,14133 44701,14105 44533,14105 L 44204,14105 44204,14899 Z M 45097,16426 L 44555,15406 44204,15406 44204,16426 43566,16426 43566,13598 44585,13598 C 44736,13598 44877,13612 45008,13641 45140,13670 45255,13718 45353,13786 45451,13854 45530,13945 45587,14057 45645,14170 45674,14310 45674,14478 45674,14686 45629,14858 45537,14992 45446,15127 45324,15227 45171,15294 L 45813,16426 45097,16426 Z"/>
        </g>
       </g>
       <g class="com.sun.star.drawing.ClosedBezierShape">
        <g id="id24">
         <rect class="BoundingBox" stroke="none" fill="none" x="46286" y="13597" width="2640" height="2830"/>
         <path fill="rgb(0,0,0)" stroke="none" d="M 46287,13598 L 46985,13598 47441,14856 C 47470,14939 47497,15025 47523,15114 47549,15202 47577,15289 47606,15376 L 47623,15376 C 47652,15289 47679,15202 47703,15114 47728,15025 47754,14939 47783,14856 L 48230,13598 48924,13598 48924,16426 48343,16426 48343,15389 C 48343,15320 48346,15243 48352,15159 48357,15075 48365,14991 48373,14905 48382,14820 48391,14736 48399,14654 48408,14571 48417,14496 48425,14426 L 48408,14426 48178,15098 47775,16178 47423,16178 47020,15098 46794,14426 46777,14426 C 46786,14496 46794,14571 46803,14654 46812,14736 46820,14820 46829,14905 46838,14991 46845,15075 46851,15159 46857,15243 46860,15320 46860,15389 L 46860,16426 46287,16426 46287,13598 Z"/>
        </g>
       </g>
       <g class="com.sun.star.drawing.ClosedBezierShape">
        <g id="id25">
         <rect class="BoundingBox" stroke="none" fill="none" x="49512" y="13545" width="2570" height="2934"/>
         <path fill="rgb(0,0,0)" stroke="none" d="M 50797,16478 C 50606,16478 50431,16444 50274,16376 50116,16308 49981,16210 49868,16083 49756,15956 49668,15801 49606,15619 49544,15437 49513,15230 49513,14999 49513,14767 49544,14561 49606,14381 49668,14200 49756,14048 49868,13925 49981,13802 50116,13708 50274,13643 50431,13578 50606,13546 50797,13546 50987,13546 51162,13578 51319,13643 51477,13708 51612,13803 51725,13927 51838,14052 51925,14204 51987,14385 52049,14566 52080,14770 52080,14999 52080,15230 52049,15437 51987,15619 51925,15801 51838,15956 51725,16083 51612,16210 51477,16308 51319,16376 51162,16444 50987,16478 50797,16478 Z M 50797,15927 C 50990,15927 51144,15844 51256,15677 51369,15511 51425,15285 51425,14999 51425,14715 51369,14494 51256,14335 51144,14176 50990,14096 50797,14096 50603,14096 50450,14176 50337,14335 50224,14494 50168,14715 50168,14999 50168,15285 50224,15511 50337,15677 50450,15844 50603,15927 50797,15927 Z"/>
        </g>
       </g>
       <g class="com.sun.star.drawing.ClosedBezierShape">
        <g id="id26">
         <rect class="BoundingBox" stroke="none" fill="none" x="52489" y="13545" width="2114" height="2934"/>
         <path fill="rgb(0,0,0)" stroke="none" d="M 53534,16478 C 53349,16478 53165,16444 52981,16376 52798,16308 52634,16206 52489,16070 L 52853,15632 C 52955,15719 53067,15790 53190,15844 53312,15899 53433,15927 53552,15927 53685,15927 53784,15902 53849,15853 53914,15804 53946,15737 53946,15654 53946,15610 53937,15573 53918,15541 53899,15509 53872,15481 53836,15456 53800,15432 53756,15409 53706,15387 53655,15365 53599,15341 53539,15315 L 53170,15159 C 53098,15130 53028,15093 52960,15046 52892,15000 52831,14946 52778,14884 52724,14822 52681,14749 52650,14667 52618,14584 52602,14491 52602,14387 52602,14271 52626,14162 52676,14060 52725,13957 52794,13867 52884,13791 52973,13714 53080,13654 53203,13611 53325,13567 53461,13546 53608,13546 53773,13546 53936,13577 54096,13641 54257,13705 54398,13797 54519,13919 L 54194,14322 C 54101,14250 54009,14194 53916,14155 53824,14116 53721,14096 53608,14096 53498,14096 53411,14119 53346,14164 53281,14209 53248,14271 53248,14352 53248,14396 53259,14433 53281,14463 53302,14493 53333,14521 53372,14545 53411,14570 53456,14593 53508,14615 53560,14636 53617,14660 53678,14686 L 54042,14834 C 54215,14903 54352,14999 54452,15120 54552,15242 54601,15402 54601,15602 54601,15720 54578,15832 54530,15938 54482,16043 54413,16136 54322,16215 54231,16295 54119,16358 53985,16406 53852,16454 53702,16478 53534,16478 Z"/>
        </g>
       </g>
       <g class="com.sun.star.drawing.ClosedBezierShape">
        <g id="id27">
         <rect class="BoundingBox" stroke="none" fill="none" x="54828" y="13597" width="2197" height="2830"/>
         <path fill="rgb(0,0,0)" stroke="none" d="M 55605,14136 C 55346,14136 55087,14136 54829,14136 54829,13956 54829,13777 54829,13598 55560,13598 56292,13598 57023,13598 57023,13777 57023,13956 57023,14136 56764,14136 56506,14136 56247,14136 56247,14899 56247,15662 56247,16426 56033,16426 55819,16426 55605,16426 55605,15662 55605,14899 55605,14136 Z"/>
        </g>
       </g>
      </g>
     </g>
    </g>
   </g>
  </g>
 </g>
</svg>